<svg width="100" height="100" viewBox="0 0 100 100" fill="none" xmlns="http://www.w3.org/2000/svg">
<path d="M85.0073 34.7244H76.5265C75.6945 29.2977 71.5341 23.5469 66.7457 18.6588C61.6372 13.637 56.1287 9.61152 51.6083 9.06075C51.3468 9.02737 51.0838 9.00709 50.8202 9H21.0976C20.8605 9 20.6258 9.0474 20.4069 9.13949C20.1879 9.23159 19.9891 9.36655 19.8219 9.53663C19.6546 9.70672 19.5222 9.90858 19.4322 10.1306C19.3422 10.3527 19.2964 10.5905 19.2974 10.8305V34.7244H11.0007C8.87879 34.7244 6.84378 35.5778 5.34335 37.0967C3.84293 38.6157 3 40.6759 3 42.824V78.7661H19.2934V87.1897C19.2966 87.6723 19.4888 88.134 19.8278 88.4734C20.1667 88.8127 20.6249 89.0021 21.1016 89H74.8824C75.3504 89 75.8025 88.8177 76.1505 88.4735C76.4985 88.1293 76.7025 87.6635 76.7025 87.1857V78.7661H93V42.824C93 40.6759 92.1571 38.6157 90.6566 37.0967C89.1562 35.5778 87.1212 34.7244 84.9993 34.7244H85.0073ZM73.0862 85.347H22.8898V72.6914H73.0862V85.347ZM73.0862 41.9979C73.0889 41.8764 73.0836 41.7481 73.0702 41.6131C72.9788 41.3034 72.8076 41.0238 72.5742 40.8032H22.8898V12.657H50.8443C52.0644 12.5841 53.1124 13.8031 53.9245 16.5934C54.6526 19.246 54.8366 22.7086 54.8366 25.1061C54.8366 26.8556 54.7566 28.0382 54.7566 28.0382L54.6126 29.974L56.5328 29.9942C56.5408 29.9942 60.9732 30.0509 65.3175 31.0472C69.4939 31.9624 72.7582 33.7808 73.0702 35.8422C73.0809 36.0311 73.0849 36.212 73.0822 36.3848V42.0019L73.0862 41.9979Z" fill="#9EA436"/>
</svg>
