<svg width="100" height="100" viewBox="0 0 100 100" fill="none" xmlns="http://www.w3.org/2000/svg">
<path d="M29.1654 70.833H70.832V91.6663H29.1654V70.833ZM79.1654 83.333V62.4997H20.832V83.333H12.4987C11.3936 83.333 10.3338 82.894 9.55242 82.1126C8.77102 81.3312 8.33203 80.2714 8.33203 79.1663V37.4997C8.33203 36.3946 8.77102 35.3348 9.55242 34.5534C10.3338 33.772 11.3936 33.333 12.4987 33.333H87.4987C88.6038 33.333 89.6636 33.772 90.445 34.5534C91.2264 35.3348 91.6654 36.3946 91.6654 37.4997V79.1663C91.6654 80.2714 91.2264 81.3312 90.445 82.1126C89.6636 82.894 88.6038 83.333 87.4987 83.333H79.1654ZM20.832 41.6663V49.9997H33.332V41.6663H20.832ZM29.1654 8.33301H70.832C71.9371 8.33301 72.9969 8.77199 73.7783 9.5534C74.5597 10.3348 74.9987 11.3946 74.9987 12.4997V24.9997H24.9987V12.4997C24.9987 11.3946 25.4377 10.3348 26.2191 9.5534C27.0005 8.77199 28.0603 8.33301 29.1654 8.33301Z" fill="#9EA436"/>
</svg>
