<svg width="100" height="100" viewBox="0 0 100 100" fill="none" xmlns="http://www.w3.org/2000/svg">
<g clip-path="url(#clip0_4801_4)">
<path fill-rule="evenodd" clip-rule="evenodd" d="M40.168 3.2C42.2191 1.15078 44.9999 -0.000209583 47.8992 2.86248e-08H81.2492V18.75H99.9992V52.0938C99.9992 55 98.843 57.7813 96.793 59.8375L59.8305 96.75C57.7798 98.7976 55.0003 99.9477 52.1024 99.9477C49.2044 99.9477 46.4249 98.7976 44.3742 96.75L30.043 82.4188L21.9617 74.3375L3.21173 55.5875C2.19597 54.5718 1.39022 53.3661 0.840487 52.039C0.290756 50.7119 0.0078125 49.2896 0.0078125 47.8531C0.0078125 46.4167 0.290756 44.9943 0.840487 43.6673C1.39022 42.3402 2.19597 41.1344 3.21173 40.1188L40.168 3.2ZM71.8742 9.375V18.75H66.6492C63.7499 18.7498 60.9691 19.9008 58.918 21.95L21.9617 58.8687C21.5867 59.2437 21.243 59.6396 20.9305 60.0563L9.83673 48.9563C9.54476 48.6634 9.38081 48.2667 9.38081 47.8531C9.38081 47.4396 9.54476 47.0429 9.83673 46.75L46.793 9.83125C46.9383 9.68624 47.1109 9.57131 47.3007 9.49303C47.4905 9.41474 47.6939 9.37463 47.8992 9.375H71.8742ZM36.6617 75.7875L28.5867 67.7063C28.2948 67.4134 28.1308 67.0167 28.1308 66.6031C28.1308 66.1896 28.2948 65.7929 28.5867 65.5L65.543 28.5812C65.6884 28.4362 65.8609 28.3213 66.0507 28.243C66.2405 28.1647 66.4439 28.1246 66.6492 28.125H90.6242V52.0938C90.6246 52.2991 90.5845 52.5025 90.5062 52.6923C90.4279 52.8821 90.313 53.0546 90.168 53.2L53.2055 90.125C52.9126 90.417 52.5159 90.5809 52.1024 90.5809C51.6888 90.5809 51.2921 90.417 50.9992 90.125L36.6617 75.7875ZM74.9992 50C76.6568 50 78.2465 49.3415 79.4186 48.1694C80.5907 46.9973 81.2492 45.4076 81.2492 43.75C81.2492 42.0924 80.5907 40.5027 79.4186 39.3306C78.2465 38.1585 76.6568 37.5 74.9992 37.5C73.3416 37.5 71.7519 38.1585 70.5798 39.3306C69.4077 40.5027 68.7492 42.0924 68.7492 43.75C68.7492 45.4076 69.4077 46.9973 70.5798 48.1694C71.7519 49.3415 73.3416 50 74.9992 50Z" fill="#9EA436"/>
</g>
<defs>
<clipPath id="clip0_4801_4">
<rect width="100" height="100" fill="white"/>
</clipPath>
</defs>
</svg>
