<svg width="100" height="100" viewBox="0 0 100 100" fill="none" xmlns="http://www.w3.org/2000/svg">
<path d="M46.4428 29.2625C48.0262 26.4167 48.8178 25 50.0012 25C51.1845 25 51.9762 26.4167 53.5595 29.2625L53.9678 29.9958C54.4178 30.8042 54.6428 31.2042 54.9928 31.4708C55.347 31.7375 55.7845 31.8375 56.6595 32.0333L57.4512 32.2167C60.5262 32.9125 62.0637 33.2583 62.4303 34.4333C62.797 35.6083 61.747 36.8375 59.6512 39.2875L59.1095 39.9208C58.5137 40.6167 58.2137 40.9625 58.0803 41.3958C57.947 41.8292 57.9928 42.2917 58.0803 43.2208L58.1637 44.0667C58.4803 47.3375 58.6387 48.975 57.6845 49.7C56.7262 50.425 55.2845 49.7625 52.4053 48.4375L51.6637 48.0958C50.8428 47.7208 50.4345 47.5333 50.0012 47.5333C49.5678 47.5333 49.1595 47.7208 48.3387 48.0958L47.597 48.4375C44.7178 49.7667 43.2762 50.425 42.3178 49.7C41.3595 48.975 41.522 47.3375 41.8387 44.0667L41.922 43.2208C42.0095 42.2917 42.0553 41.8292 41.922 41.3958C41.7887 40.9625 41.4887 40.6167 40.8928 39.9208L40.3512 39.2875C38.2553 36.8375 37.2053 35.6125 37.572 34.4333C37.9387 33.2583 39.4762 32.9125 42.5512 32.2167L43.3428 32.0333C44.2178 31.8375 44.6553 31.7417 45.0095 31.4708C45.3595 31.2042 45.5845 30.8042 46.0345 29.9958L46.4428 29.2625Z" stroke="#9EA436" stroke-width="6.25"/>
<path d="M79.1654 37.4997C79.1654 41.3299 78.4109 45.1226 76.9452 48.6613C75.4794 52.1999 73.331 55.4152 70.6226 58.1236C67.9143 60.832 64.699 62.9804 61.1603 64.4462C57.6216 65.9119 53.8289 66.6663 49.9987 66.6663C46.1685 66.6663 42.3758 65.9119 38.8371 64.4462C35.2984 62.9804 32.0831 60.832 29.3747 58.1236C26.6664 55.4152 24.518 52.1999 23.0522 48.6613C21.5864 45.1226 20.832 41.3299 20.832 37.4997C20.832 29.7642 23.9049 22.3455 29.3747 16.8757C34.8446 11.4059 42.2632 8.33301 49.9987 8.33301C57.7342 8.33301 65.1528 11.4059 70.6226 16.8757C76.0925 22.3455 79.1654 29.7642 79.1654 37.4997Z" stroke="#9EA436" stroke-width="6.25"/>
<path d="M22.7334 50L12.4667 60.6292C10.2167 62.9583 9.09173 64.125 8.70006 65.1125C7.81256 67.3583 8.57506 69.8542 10.5042 71.0375C11.3542 71.5542 12.8834 71.7167 15.9417 72.0417C17.6709 72.225 18.5334 72.3125 19.2542 72.5917C20.0606 72.9034 20.7895 73.3869 21.3903 74.0085C21.9911 74.6302 22.4494 75.3751 22.7334 76.1917C23.0001 76.9417 23.0876 77.8333 23.2667 79.625C23.5751 82.7917 23.7334 84.375 24.2334 85.25C25.3751 87.25 27.7876 88.0333 29.9542 87.1167C30.9126 86.7167 32.0376 85.5542 34.2876 83.2208L50.0001 66.95L65.7126 83.2208C67.9626 85.5542 69.0876 86.7167 70.0459 87.1167C72.2126 88.0333 74.6251 87.25 75.7667 85.25C76.2667 84.375 76.4209 82.7917 76.7334 79.625C76.9126 77.8333 77.0001 76.9417 77.2667 76.1917C77.8667 74.5167 79.1251 73.2125 80.7459 72.5917C81.4667 72.3125 82.3292 72.225 84.0584 72.0417C87.1167 71.7167 88.6459 71.5542 89.4959 71.0375C91.4251 69.8542 92.1876 67.3583 91.3001 65.1125C90.9084 64.125 89.7834 62.9583 87.5334 60.6292L77.2667 50" stroke="#9EA436" stroke-width="6.25"/>
</svg>
