<svg width="38" height="27" viewBox="0 0 38 27" fill="none" xmlns="http://www.w3.org/2000/svg">
<path fill-rule="evenodd" clip-rule="evenodd" d="M17.3565 1.338L23.5987 12.1526L25.2078 9.366C26.2372 7.582 28.8115 7.582 29.8427 9.366L37.5674 22.746C37.8023 23.1528 37.9259 23.6143 37.9259 24.084C37.9259 24.5537 37.8023 25.0152 37.5674 25.422C37.3326 25.8288 36.9948 26.1666 36.588 26.4015C36.1812 26.6363 35.7197 26.76 35.25 26.76H27.5253V26.7564L27.3968 26.76H2.67772C2.20783 26.7603 1.74616 26.6369 1.33911 26.4021C0.932072 26.1674 0.594016 25.8296 0.358945 25.4227C0.123874 25.0159 7.5294e-05 24.5543 3.43344e-08 24.0844C-7.52253e-05 23.6145 0.123575 23.1529 0.358516 22.746L12.7199 1.338C13.7492 -0.446 16.3235 -0.446 17.3547 1.338M15.0373 12.8484L13.3514 13.9723L13.1444 14.09C12.9006 14.2092 12.6327 14.2711 12.3613 14.2711C12.0898 14.2711 11.822 14.2092 11.5781 14.09L11.3711 13.9723L10.0528 13.0928L4.22266 23.192H25.8519L20.0218 13.0946L18.7016 13.9723L18.4964 14.09C18.2526 14.2092 17.9847 14.2711 17.7133 14.2711C17.4418 14.2711 17.174 14.2092 16.9301 14.09L16.7231 13.9723L15.0373 12.8484ZM27.5253 12.488L25.6592 15.7206L29.7142 22.746L29.8302 22.9672L29.9212 23.192H33.705L27.5253 12.488ZM15.0373 4.46L11.8403 9.99754L12.3613 10.3436L14.0471 9.21971C14.3403 9.02412 14.6848 8.91973 15.0373 8.91973C15.3897 8.91973 15.7342 9.02412 16.0274 9.21971L17.7133 10.3436L18.2342 9.99754L15.0373 4.46Z" fill="white"/>
</svg>
